<?xml version="1.0" encoding="utf-8"?>
<!-- Generator: Adobe Illustrator 22.1.0, SVG Export Plug-In . SVG Version: 6.00 Build 0)  -->
<svg version="1.1" id="Livello_1" xmlns="http://www.w3.org/2000/svg" xmlns:xlink="http://www.w3.org/1999/xlink" x="0px" y="0px"
	 viewBox="0 0 841.9 595.3" style="enable-background:new 0 0 841.9 595.3;" xml:space="preserve">
<style type="text/css">
	.st0{fill:#FFFFFF;}
</style>
<g>
	<path class="st0" d="M185.1,262h-27.5v-26h80.9v26H211v145.7h-25.9V262z"/>
	<path class="st0" d="M297.2,233.8c11.4,0,21.1,4,29.1,12.1c8,8,12,17.7,12,29.1v93.7c0,11.4-4,21.1-12.1,29.1c-8,8-17.7,12-29.1,12
		s-21.1-4-29.1-12.1s-11.9-17.7-11.9-29.1v-93.7c0-11.4,4-21.1,12.1-29.1C276.3,237.8,286,233.8,297.2,233.8z M311.3,274.3
		c0-4.1-1.4-7.6-4.3-10.5s-6.4-4.3-10.5-4.3s-7.6,1.4-10.6,4.3c-2.9,2.9-4.4,6.4-4.4,10.5v94c0,4.1,1.5,7.6,4.4,10.5
		s6.4,4.3,10.6,4.3c4.1,0,7.6-1.4,10.5-4.3s4.3-6.4,4.3-10.5V274.3z"/>
	<path class="st0" d="M431,368.7c0,11.4-4,21.1-12,29s-17.7,11.9-29,11.9c-6.6,0-11.9-0.7-16-2.1l3.7-24.1c2.9,0.5,5.4,0.8,7.5,0.8
		c1.3,0.1,3.1,0,5.5-0.1c4.2-0.3,7.7-1.8,10.6-4.5s4.3-6.2,4.3-10.3V236.2H431V368.7z"/>
	<path class="st0" d="M482,368.2l-6.3,39.5h-27L478,236h35.6l28.8,171.7h-27.2l-6.1-39.5H482z M495.6,275.3L486,343h19.2
		L495.6,275.3z"/>
	<path class="st0" d="M585.5,407.7h-29.3V235.8h42.1l27.3,117.1l26.2-117.1h40.4v171.8h-29.3V285.5l-25.4,122.2h-23.6l-28.4-121.9
		V407.7z"/>
	<g>
		<path class="st0" d="M157.6,226.6v-39.2h16.8v5.9h-10.9V204h8v5.9h-8v10.7h10.9v5.9h-16.8V226.6z"/>
		<path class="st0" d="M185.5,226.6l-7-39.2h6.2l4.9,30.5l5-30.5h6.2l-7.1,39.2H185.5z"/>
		<path class="st0" d="M205.7,226.6v-39.2h16.8v5.9h-10.9V204h8v5.9h-8v10.7h10.9v5.9h-16.8V226.6z"/>
		<path class="st0" d="M235.9,187.4c3.3,0,5.7,0.9,7.3,2.7c1.4,1.6,2,3.8,2,6.6v5.7c0,2.8-1.1,5.1-3.2,7l4.4,17.1H240l-3.6-14.8
			c-0.2,0-0.3,0-0.5,0h-3.4v14.8h-5.9v-39.2L235.9,187.4L235.9,187.4z M239.4,196.9c0-2.3-1.1-3.4-3.4-3.4h-3.6V206h3.6
			c0.9,0,1.7-0.3,2.4-1s1-1.5,1-2.4V196.9z"/>
		<path class="st0" d="M255.7,210.2l-7.9-22.8h6.5l4.4,14.1l4.3-14.1h6.5l-7.9,22.8v16.4h-5.9L255.7,210.2L255.7,210.2z"/>
		<path class="st0" d="M274.3,226.6v-39.2h8.9c2.3,0,4.4,0.6,6.3,1.8c1.6,1,2.8,2.7,3.4,4.8c0.4,1.2,0.6,2.6,0.6,4.2
			c0,2.6-0.7,4.7-2.1,6.3c-0.6,0.7-1.3,1.2-2.1,1.5c1.3,0.5,2.4,1.5,3.3,3c0.6,1,1.1,2.3,1.3,3.9c0.1,0.8,0.2,1.7,0.2,2.7
			c0,2.5-0.5,4.6-1.4,6.3c-0.7,1.4-1.8,2.4-3.1,3.3c-1.5,0.9-3,1.4-4.5,1.4H274.3z M280.7,203.4h2.5c1.8,0,3.1-0.9,3.7-2.7
			c0.2-0.7,0.3-1.5,0.3-2.5c0-1.6-0.4-2.9-1.2-3.7c-0.7-0.8-1.7-1.2-2.8-1.2h-2.5V203.4z M280.7,220.8h2.5c2,0,3.4-1,4.2-3.1
			c0.3-0.7,0.4-1.5,0.4-2.4c0-2.2-0.4-3.8-1.3-4.8c-0.8-0.9-1.9-1.4-3.3-1.4h-2.5L280.7,220.8L280.7,220.8z"/>
		<path class="st0" d="M308.6,186.9c2.6,0,4.8,0.9,6.6,2.8c1.8,1.8,2.7,4,2.7,6.6v21.4c0,2.6-0.9,4.8-2.8,6.6
			c-1.8,1.8-4,2.7-6.6,2.7s-4.8-0.9-6.6-2.8c-1.8-1.8-2.7-4-2.7-6.6v-21.4c0-2.6,0.9-4.8,2.8-6.6
			C303.9,187.8,306.1,186.9,308.6,186.9z M311.9,196.2c0-0.9-0.3-1.7-1-2.4s-1.5-1-2.4-1s-1.7,0.3-2.4,1c-0.7,0.7-1,1.5-1,2.4v21.5
			c0,0.9,0.3,1.7,1,2.4s1.5,1,2.4,1s1.7-0.3,2.4-1c0.7-0.7,1-1.5,1-2.4V196.2z"/>
		<path class="st0" d="M341.8,217.2c0,2.6-0.9,4.8-2.7,6.6c-1.8,1.8-4,2.8-6.6,2.8h-9.3v-39.2h9.3c2.6,0,4.8,0.9,6.6,2.8
			c1.8,1.8,2.7,4,2.7,6.6V217.2z M329.1,220.8h3.6c0.9,0,1.7-0.3,2.4-1c0.6-0.7,1-1.5,1-2.4v-20.5c0-0.9-0.3-1.7-1-2.4s-1.4-1-2.4-1
			h-3.6V220.8z"/>
		<path class="st0" d="M352.1,210.2l-7.9-22.8h6.5l4.4,14.1l4.3-14.1h6.5l-7.9,22.8v16.4h-5.9V210.2z"/>
		<path class="st0" d="M384.8,187.4l7.8,26.4v-26.4h5.9v39.2h-6.3l-8.1-25.1v25.1h-5.9v-39.2H384.8z"/>
		<path class="st0" d="M403.9,226.6v-39.2h16.8v5.9h-10.9V204h8v5.9h-8v10.7h10.9v5.9h-16.8V226.6z"/>
		<path class="st0" d="M424.8,226.6v-39.2h16.8v5.9h-10.9V204h8v5.9h-8v10.7h10.9v5.9h-16.8V226.6z"/>
		<path class="st0" d="M464.2,217.2c0,2.6-0.9,4.8-2.7,6.6c-1.8,1.8-4,2.8-6.6,2.8h-9.3v-39.2h9.3c2.6,0,4.8,0.9,6.6,2.8
			c1.8,1.8,2.7,4,2.7,6.6V217.2z M451.6,220.8h3.6c0.9,0,1.7-0.3,2.4-1c0.6-0.7,1-1.5,1-2.4v-20.5c0-0.9-0.3-1.7-1-2.4s-1.4-1-2.4-1
			h-3.6V220.8z"/>
		<path class="st0" d="M488.6,216.9c0,2.7-0.7,5.1-2.1,7c-1,1.3-2.3,2.2-4.1,2.8c-0.9,0.3-2,0.4-3.3,0.4c-2.3,0-4.2-0.6-5.8-1.7
			c-1.3-0.9-2.3-2.2-3-3.8s-1.2-3.5-1.3-5.6l5.6-0.4c0.3,2.3,0.9,3.9,1.8,5c0.7,0.8,1.5,1.1,2.4,1.1c1.3,0,2.3-0.7,3.1-1.9
			c0.4-0.6,0.6-1.5,0.6-2.6c0-1.6-0.7-3.2-2.2-4.9c-1.2-1.1-2.9-2.8-5.3-5c-2-1.9-3.3-3.6-4.2-5.1c-0.9-1.7-1.3-3.5-1.3-5.5
			c0-3.6,1.2-6.3,3.6-8.1c1.5-1.1,3.3-1.7,5.5-1.7c2.1,0,3.9,0.5,5.4,1.4c1.2,0.7,2.1,1.8,2.8,3.1c0.7,1.3,1.2,2.8,1.3,4.5l-5.7,1
			c-0.2-1.6-0.6-2.9-1.4-3.8c-0.5-0.6-1.3-1-2.3-1c-1.1,0-1.9,0.5-2.5,1.4c-0.5,0.8-0.7,1.7-0.7,2.9c0,1.8,0.8,3.6,2.3,5.5
			c0.6,0.7,1.5,1.5,2.6,2.5c1.4,1.1,2.3,1.9,2.7,2.4c1.5,1.5,2.6,2.9,3.4,4.3c0.4,0.7,0.7,1.3,0.9,1.8
			C488.3,214.5,488.6,215.8,488.6,216.9z"/>
		<path class="st0" d="M520.4,216.9c0,2.7-0.7,5.1-2.1,7c-1,1.3-2.3,2.2-4.1,2.8c-0.9,0.3-2,0.4-3.3,0.4c-2.3,0-4.2-0.6-5.8-1.7
			c-1.3-0.9-2.3-2.2-3-3.8s-1.2-3.5-1.3-5.6l5.6-0.4c0.3,2.3,0.9,3.9,1.8,5c0.7,0.8,1.5,1.1,2.4,1.1c1.3,0,2.3-0.7,3.1-1.9
			c0.4-0.6,0.6-1.5,0.6-2.6c0-1.6-0.7-3.2-2.2-4.9c-1.2-1.1-2.9-2.8-5.3-5c-2-1.9-3.3-3.6-4.2-5.1c-0.9-1.7-1.3-3.5-1.3-5.5
			c0-3.6,1.2-6.3,3.6-8.1c1.5-1.1,3.3-1.7,5.5-1.7c2.1,0,3.9,0.5,5.4,1.4c1.2,0.7,2.1,1.8,2.8,3.1s1.2,2.8,1.3,4.5l-5.7,1
			c-0.2-1.6-0.6-2.9-1.4-3.8c-0.5-0.6-1.3-1-2.3-1c-1.1,0-1.9,0.5-2.5,1.4c-0.5,0.8-0.7,1.7-0.7,2.9c0,1.8,0.8,3.6,2.3,5.5
			c0.6,0.7,1.5,1.5,2.6,2.5c1.4,1.1,2.3,1.9,2.7,2.4c1.5,1.5,2.6,2.9,3.4,4.3c0.4,0.7,0.7,1.3,0.9,1.8
			C520.1,214.5,520.4,215.8,520.4,216.9z"/>
		<path class="st0" d="M534.5,186.9c2.6,0,4.8,0.9,6.6,2.8c1.8,1.8,2.7,4,2.7,6.6v21.4c0,2.6-0.9,4.8-2.8,6.6
			c-1.8,1.8-4,2.7-6.6,2.7s-4.8-0.9-6.6-2.8s-2.7-4-2.7-6.6v-21.4c0-2.6,0.9-4.8,2.8-6.6C529.8,187.8,532,186.9,534.5,186.9z
			 M537.8,196.2c0-0.9-0.3-1.7-1-2.4s-1.5-1-2.4-1s-1.7,0.3-2.4,1s-1,1.5-1,2.4v21.5c0,0.9,0.3,1.7,1,2.4s1.5,1,2.4,1s1.7-0.3,2.4-1
			s1-1.5,1-2.4V196.2z"/>
		<path class="st0" d="M555,226.6h-5.9v-39.2h8.5l5.5,28.2l5.3-28.2h8.1v39.2h-5.9V202l-5.1,24.6h-4.8L555,202V226.6z"/>
		<path class="st0" d="M581.8,226.6v-39.2h16.8v5.9h-10.9V204h8v5.9h-8v10.7h10.9v5.9h-16.8V226.6z"/>
		<path class="st0" d="M602.7,226.6v-39.2h8.9c2.3,0,4.4,0.6,6.3,1.8c1.6,1,2.8,2.7,3.4,4.8c0.4,1.2,0.6,2.6,0.6,4.2
			c0,2.6-0.7,4.7-2.1,6.3c-0.6,0.7-1.3,1.2-2.1,1.5c1.3,0.5,2.4,1.5,3.3,3c0.6,1,1.1,2.3,1.3,3.9c0.1,0.8,0.2,1.7,0.2,2.7
			c0,2.5-0.5,4.6-1.4,6.3c-0.7,1.4-1.8,2.4-3.1,3.3c-1.5,0.9-3,1.4-4.5,1.4H602.7z M609.1,203.4h2.5c1.8,0,3.1-0.9,3.7-2.7
			c0.2-0.7,0.3-1.5,0.3-2.5c0-1.6-0.4-2.9-1.2-3.7c-0.7-0.8-1.7-1.2-2.8-1.2h-2.5V203.4z M609.1,220.8h2.5c2,0,3.4-1,4.2-3.1
			c0.3-0.7,0.4-1.5,0.4-2.4c0-2.2-0.4-3.8-1.3-4.8c-0.8-0.9-1.9-1.4-3.3-1.4h-2.5L609.1,220.8L609.1,220.8z"/>
		<path class="st0" d="M637,186.9c2.6,0,4.8,0.9,6.6,2.8c1.8,1.8,2.7,4,2.7,6.6v21.4c0,2.6-0.9,4.8-2.8,6.6c-1.8,1.8-4,2.7-6.6,2.7
			s-4.8-0.9-6.6-2.8s-2.7-4-2.7-6.6v-21.4c0-2.6,0.9-4.8,2.8-6.6C632.3,187.8,634.5,186.9,637,186.9z M640.3,196.2
			c0-0.9-0.3-1.7-1-2.4s-1.5-1-2.4-1s-1.7,0.3-2.4,1s-1,1.5-1,2.4v21.5c0,0.9,0.3,1.7,1,2.4s1.5,1,2.4,1s1.7-0.3,2.4-1s1-1.5,1-2.4
			V196.2z"/>
		<path class="st0" d="M670.2,217.2c0,2.6-0.9,4.8-2.7,6.6s-4,2.8-6.6,2.8h-9.3v-39.2h9.3c2.6,0,4.8,0.9,6.6,2.8
			c1.8,1.8,2.7,4,2.7,6.6V217.2z M657.5,220.8h3.6c0.9,0,1.7-0.3,2.4-1c0.6-0.7,1-1.5,1-2.4v-20.5c0-0.9-0.3-1.7-1-2.4s-1.4-1-2.4-1
			h-3.6V220.8z"/>
		<path class="st0" d="M680.6,210.2l-7.9-22.8h6.5l4.4,14.1l4.3-14.1h6.5l-7.9,22.8v16.4h-5.9L680.6,210.2L680.6,210.2z"/>
	</g>
</g>
</svg>
